<?xml version="1.0" encoding="UTF-8"?>
<svg xmlns="http://www.w3.org/2000/svg" xmlns:xlink="http://www.w3.org/1999/xlink" viewBox="0 0 30 30" width="30px" height="30px">
<g id="surface81913820">
<path style=" stroke:none;fill-rule:nonzero;fill:rgb(96.862745%,96.470588%,93.725491%);fill-opacity:1;" d="M 14.035156 1.964844 C 12.929688 1.964844 12.035156 2.859375 12.035156 3.964844 L 12.035156 18.964844 L 7.964844 18.964844 C 7.5625 18.964844 7.195312 19.207031 7.042969 19.578125 C 6.886719 19.953125 6.972656 20.386719 7.257812 20.671875 L 14.328125 27.742188 C 14.71875 28.132812 15.351562 28.132812 15.742188 27.742188 L 22.8125 20.671875 C 23.003906 20.480469 23.105469 20.226562 23.105469 19.964844 C 23.105469 19.835938 23.082031 19.703125 23.03125 19.578125 C 22.878906 19.207031 22.511719 18.964844 22.105469 18.964844 L 18.035156 18.964844 L 18.035156 3.964844 C 18.035156 2.859375 17.140625 1.964844 16.035156 1.964844 Z M 14.035156 1.964844 "/>
</g>
</svg>
